<svg width="32" height="32" viewBox="0 0 32 32" fill="none" xmlns="http://www.w3.org/2000/svg">
<rect width="32" height="32" fill="#F5F5F5"/>
<rect width="1440" height="2257" transform="translate(-303 -977)" fill="white"/>
<mask id="mask0_609_4585" style="mask-type:alpha" maskUnits="userSpaceOnUse" x="-253" y="-232" width="295" height="274">
<rect x="-251" y="-230" width="291" height="270" stroke="#2E3192" stroke-width="4"/>
</mask>
<g mask="url(#mask0_609_4585)">
<path d="M-335 -260L-329.575 -110.959L-297.891 -31.7808L-305.921 -260H-335Z" fill="#B8E4FA"/>
<path d="M-305.921 -260L-297.891 -31.7808L-266.208 -232.055L-270.982 -260H-305.921Z" fill="#0091C7"/>
<path d="M-329.575 -110.959L-335 -260V80H-291.815L-297.891 -31.7808L-329.575 -110.959Z" fill="#0071BC"/>
<path d="M-297.891 -31.7808L-291.815 80L-266.208 -232.055L-297.891 -31.7808Z" fill="#00A99D"/>
<path d="M-266.208 -232.055L-291.815 80H-267.293L-266.208 -232.055Z" fill="#ACCA3E"/>
<path d="M-266.208 -232.055L-267.293 80H-211.522L-266.208 -232.055Z" fill="#2E3192"/>
<path d="M-270.982 -260L-266.208 -232.055L-211.522 80L-221.504 -260H-270.982Z" fill="#ACCA3E"/>
<path d="M-221.504 -260L-211.522 80L-200.889 -110.959L-208.701 -260H-221.504Z" fill="#F37920"/>
<path d="M-200.889 -110.959L-211.522 80H-173.545L-182.009 -162.192L-200.889 -110.959Z" fill="#D60080"/>
<path d="M-208.701 -260L-200.889 -110.959L-182.009 -162.192L-183.745 -260H-208.701Z" fill="#2E3192"/>
<path d="M-182.009 -162.192L-173.545 80H-146.853L-164.865 -110.959L-182.009 -162.192Z" fill="#9798C9"/>
<path d="M-128.625 -260L-139.475 80H-120.595L-100.196 -260H-128.625Z" fill="#0091C7"/>
<path d="M-100.196 -260L-120.595 80H-89.78L-100.196 -260Z" fill="#0071BC"/>
<path d="M-100.196 -260L-89.78 80H-53.7566L-43.1232 -260H-100.196Z" fill="#00A99D"/>
<path d="M-43.1232 -260L-53.7566 80H2.44867L-18.1671 -260H-43.1232Z" fill="#009245"/>
<path d="M-18.1671 -260L2.44867 80L28.7068 -260H-18.1671Z" fill="#FBB03B"/>
<path d="M28.7068 -260L2.44867 80H31.0938L39.7742 -22.4658L28.7068 -260Z" fill="#F37920"/>
<path d="M28.7068 -260L39.7742 -22.4658L78.8358 -143.562L65.8152 -260H28.7068Z" fill="#D60080"/>
<path d="M39.7742 -22.4658L31.0938 80H61.9091L78.8358 -143.562L39.7742 -22.4658Z" fill="#2E3192"/>
<path d="M78.8358 -143.562L61.9091 80H102.056L98.3666 -143.562H78.8358Z" fill="#E97FC0"/>
<path d="M65.8152 -260L78.8358 -143.562H98.3666L109 -260H65.8152Z" fill="#9798C9"/>
<path d="M98.3666 -143.562L102.056 80H109V-260L98.3666 -143.562Z" fill="#F9BC90"/>
<path d="M-183.745 -260L-182.009 -162.192L-164.865 -110.959L-161.393 -260H-183.745Z" fill="#B8E4FA"/>
<path d="M-145.117 -260L-139.475 80L-128.625 -260H-145.117Z" fill="#2E3192"/>
<path d="M-161.393 -260L-164.865 -110.959L-146.853 80H-139.475L-145.117 -260H-161.393Z" fill="#F37920"/>
<path d="M-335 -260L-329.575 -110.959L-297.891 -31.7808M-335 -260H-305.921M-335 -260V80H-291.815M-297.891 -31.7808L-305.921 -260M-297.891 -31.7808L-291.815 80M-297.891 -31.7808L-266.208 -232.055M-305.921 -260H-270.982M-291.815 80L-266.208 -232.055M-291.815 80H-267.293M-266.208 -232.055L-270.982 -260M-266.208 -232.055L-267.293 80M-266.208 -232.055L-211.522 80M-270.982 -260H-221.504M-267.293 80H-211.522M-211.522 80L-221.504 -260M-211.522 80L-200.889 -110.959M-211.522 80H-173.545M-221.504 -260H-208.701M-208.701 -260L-200.889 -110.959M-208.701 -260H-183.745M-200.889 -110.959L-182.009 -162.192M-173.545 80L-182.009 -162.192M-173.545 80H-146.853M-182.009 -162.192L-183.745 -260M-182.009 -162.192L-164.865 -110.959M-183.745 -260H-161.393M-164.865 -110.959L-161.393 -260M-164.865 -110.959L-146.853 80M-161.393 -260H-145.117M-146.853 80H-139.475M-139.475 80L-145.117 -260M-139.475 80L-128.625 -260M-139.475 80H-120.595M-145.117 -260H-128.625M-128.625 -260H-100.196M-100.196 -260L-120.595 80M-100.196 -260L-89.78 80M-100.196 -260H-43.1232M-120.595 80H-89.78M-89.78 80H-53.7566M-53.7566 80L-43.1232 -260M-53.7566 80H2.44867M-43.1232 -260H-18.1671M-18.1671 -260L2.44867 80M-18.1671 -260H28.7068M2.44867 80L28.7068 -260M2.44867 80H31.0938M28.7068 -260L39.7742 -22.4658M28.7068 -260H65.8152M39.7742 -22.4658L31.0938 80M39.7742 -22.4658L78.8358 -143.562M31.0938 80H61.9091M61.9091 80L78.8358 -143.562M61.9091 80H102.056M78.8358 -143.562L65.8152 -260M78.8358 -143.562H98.3666M65.8152 -260H109M98.3666 -143.562L102.056 80M98.3666 -143.562L109 -260M102.056 80H109V-260" stroke="#818C99"/>
</g>
<path d="M16 0C18.6863 3.20335e-08 21.3293 0.67634 23.6854 1.96666C26.0415 3.25697 28.0348 5.11972 29.4815 7.38315C30.9282 9.64658 31.7817 12.2378 31.9634 14.9179C32.145 17.5981 31.649 20.2808 30.521 22.7187C29.3929 25.1567 27.6693 27.2714 25.5088 28.8679C23.3484 30.4643 20.8209 31.4911 18.1592 31.8536C15.4975 32.2161 12.7873 31.9027 10.2787 30.9421C7.77001 29.9815 5.54358 28.4048 3.80467 26.3573L16 16V0Z" fill="#2E3192"/>
<circle cx="16" cy="16" r="15.5" stroke="#2E3192"/>
</svg>
