<svg width="43" height="50" viewBox="0 0 43 50" fill="none" xmlns="http://www.w3.org/2000/svg">
<path d="M12.589 25.3603C5.56822 25.3603 0 19.6299 0 12.6802C0 5.60857 5.68927 0 12.589 0C19.6097 0 25.178 5.7305 25.178 12.6802C25.299 19.7519 19.6097 25.3603 12.589 25.3603ZM12.589 0.609624C6.05241 0.609624 0.605238 5.97435 0.605238 12.6802C0.605238 19.2642 5.93136 24.7507 12.589 24.7507C19.1256 24.7507 24.5727 19.3861 24.5727 12.6802C24.5727 6.09627 19.2466 0.609624 12.589 0.609624Z" fill="white"/>
<path d="M8.71546 16.8254C8.59442 16.8254 8.47335 16.8254 8.47335 16.7035C8.35231 16.5816 8.35231 16.3377 8.47335 16.2158L11.4995 13.2897C11.6206 13.1678 11.8627 13.1678 11.9838 13.2897C12.1048 13.4116 12.1048 13.6553 11.9838 13.7773L8.95757 16.7035C8.83653 16.8254 8.83651 16.8254 8.71546 16.8254Z" fill="white"/>
<path d="M12.589 11.8263C12.3469 11.8263 12.2258 11.7045 12.2258 11.4606V3.53551C12.2258 3.29166 12.3469 3.16968 12.589 3.16968C12.8311 3.16968 12.9521 3.29166 12.9521 3.53551V11.4606C12.9521 11.7045 12.8311 11.8263 12.589 11.8263Z" fill="white"/>
<path d="M12.5893 14.0213C11.863 14.0213 11.2578 13.4117 11.2578 12.6802C11.2578 11.9486 11.863 11.3389 12.5893 11.3389C13.3156 11.3389 13.9208 11.9486 13.9208 12.6802C13.9208 13.4117 13.4366 14.0213 12.5893 14.0213ZM12.5893 11.9485C12.2262 11.9485 11.8631 12.3144 11.8631 12.6802C11.8631 13.0459 12.2262 13.4117 12.5893 13.4117C12.9525 13.4117 13.3156 13.0459 13.3156 12.6802C13.3156 12.3144 13.0735 11.9485 12.5893 11.9485Z" fill="white"/>
<path fill-rule="evenodd" clip-rule="evenodd" d="M13.0284 50H42.5614C42.7076 50 42.8538 49.819 43 49.4566V13.2247C43 12.8624 42.8538 12.6812 42.5614 12.6812H24.8553V13.7681H42.1228V48.9131H13.3209V25.3623H12.5898V49.4566C12.5898 49.819 12.736 50 13.0284 50Z" fill="white"/>
<path d="M38.4676 26.9927H16.5372C16.2448 26.9927 16.0986 26.8114 16.0986 26.4491C16.0986 26.0868 16.2448 25.9058 16.5372 25.9058H38.4676C38.76 25.9058 38.9062 26.0868 38.9062 26.4491C38.9062 26.6303 38.76 26.9927 38.4676 26.9927Z" fill="white"/>
<path d="M27.6486 31.5217H16.5372C16.2448 31.5217 16.0986 31.3405 16.0986 30.9782C16.0986 30.6158 16.2448 30.4348 16.5372 30.4348H27.6486C27.941 30.4348 28.0872 30.6158 28.0872 30.9782C28.0872 31.3405 27.941 31.5217 27.6486 31.5217Z" fill="white"/>
<path d="M27.6486 40.761H16.5372C16.2448 40.761 16.0986 40.5797 16.0986 40.2174C16.0986 39.8551 16.2448 39.6741 16.5372 39.6741H27.6486C27.941 39.6741 28.0872 39.8551 28.0872 40.2174C28.0872 40.5797 27.941 40.761 27.6486 40.761Z" fill="white"/>
<path d="M38.4676 36.2322H16.5372C16.2448 36.2322 16.0986 36.0509 16.0986 35.6886C16.0986 35.3263 16.2448 35.1453 16.5372 35.1453H38.4676C38.76 35.1453 38.9062 35.3263 38.9062 35.6886C38.9062 35.8698 38.76 36.2322 38.4676 36.2322Z" fill="white"/>
</svg>
