<svg width="43" height="50" viewBox="0 0 43 50" fill="none" xmlns="http://www.w3.org/2000/svg">
<path d="M31.0461 36.461C30.8541 36.461 30.6621 36.2824 30.47 36.1036L20.292 15.7283C18.5637 12.3325 18.9478 8.40036 21.0602 5.18322C23.1726 1.96608 26.6293 0.17873 30.47 0C30.8541 0 31.4301 0 31.8142 0C35.6549 0.17873 39.1116 2.14481 41.224 5.18322C43.3364 8.40036 43.5284 12.3325 41.9921 15.7283L31.8142 36.1036C31.6221 36.4611 31.4302 36.461 31.0461 36.461ZM31.0461 0.893651C30.8541 0.893651 30.6621 0.893651 30.47 0.893651C27.0134 1.07238 23.7487 2.85981 22.0204 5.7195C20.1 8.57918 19.908 12.3326 21.4443 15.371L31.2381 34.8524L41.032 15.371C42.5683 12.3326 42.3761 8.57918 40.4558 5.7195C38.5354 2.85981 35.4629 1.07238 32.0063 0.893651C31.4302 0.893651 31.2381 0.893651 31.0461 0.893651Z" fill="white"/>
<path d="M31.0463 16.801C27.3977 16.801 24.5171 14.1202 24.5171 10.7243C24.5171 7.32846 27.3977 4.64746 31.0463 4.64746C34.695 4.64746 37.5755 7.32846 37.5755 10.7243C37.5755 14.1202 34.695 16.801 31.0463 16.801ZM31.0463 5.7198C27.9738 5.7198 25.6694 8.04338 25.6694 10.7243C25.6694 13.584 28.1658 15.7286 31.0463 15.7286C34.1189 15.7286 36.4233 13.4053 36.4233 10.7243C36.6154 8.04338 34.1189 5.7198 31.0463 5.7198Z" fill="white"/>
<path fill-rule="evenodd" clip-rule="evenodd" d="M13.2504 20.5095L0.768131 12.6453C0.576095 12.4665 0.384083 12.4665 0.192047 12.6453C1.17181e-05 12.6453 0 12.8241 0 13.1816V41.5996C0 41.7783 1.17181e-05 41.9571 0.192047 41.9571L13.0584 49.9999H13.2504H13.4425L25.9248 42.1358L38.4071 49.9999H38.7912H38.9832C39.1752 49.9999 39.1752 49.8212 39.1752 49.4638V21.0456C38.7912 20.8669 38.7912 20.6881 38.5992 20.6881L37.831 22.1459V48.5701L26.1168 41.2421L26.011 25.4132L24.9646 23.235V41.0634L13.2504 48.3913V21.2244L21.3916 16.1316L21.1239 15.5409L13.2504 20.5095ZM12.0982 21.4031L0.384065 14.0752V41.2421L12.0982 48.5701V21.4031Z" fill="white"/>
</svg>
