<svg width="43" height="50" viewBox="0 0 43 50" fill="none" xmlns="http://www.w3.org/2000/svg">
<path d="M7.4197 12.86L12.964 17.8623L32.5323 0.20739C33.0215 -0.233982 34 0.0602125 34 0.795833V10.8004C34 10.9475 33.8369 11.2417 33.6738 11.3888L13.2902 29.7793C12.964 30.0736 12.3118 30.0736 11.9856 29.7793L0.244604 18.8922C-0.0815347 18.5979 -0.0815347 18.0094 0.244604 17.7151L5.95203 12.86C6.60431 12.5658 7.09356 12.5658 7.4197 12.86ZM0.896922 18.4507L12.801 29.1909L33.1847 10.8004V0.943011L13.6163 18.5979C13.2902 18.8922 12.6379 18.8922 12.3118 18.5979L6.60435 13.4486C4.15831 15.5083 1.5492 17.7151 0.896922 18.4507Z" fill="#FBFDFF"/>
<path d="M36.9655 36.9373L42.7186 31.1735C43.0938 30.7976 43.0938 30.171 42.7186 29.7951L37.2157 24.2819C36.8405 23.906 36.2151 23.906 35.8399 24.2819L30.0868 30.0458L24.4588 24.4072C24.0836 24.0313 23.4582 24.0313 23.083 24.4072L17.33 29.5446C16.9548 29.9205 16.8297 30.6722 17.33 31.0482L22.8329 36.8121C22.8329 36.8121 22.8329 36.9374 22.8329 37.0627L17.5801 42.3253C17.2049 42.7012 17.2049 43.3277 17.5801 43.7036L23.083 49.2168C23.4582 49.5927 24.0836 49.5927 24.4588 49.2168L29.2113 44.4554C29.5866 44.0795 30.2119 44.0795 30.5871 44.4554L35.8399 49.7181C36.2151 50.094 36.8405 50.094 37.2157 49.7181L42.5936 44.3301C42.9688 43.9542 42.9688 43.3277 42.5936 42.9518L36.9655 36.9373ZM42.3434 43.5783L36.8404 49.0916C36.8404 49.0916 36.7154 49.0916 36.5903 49.0916L30.8372 43.3277C30.462 42.9518 29.8367 42.9518 29.4615 43.3277L24.0836 48.7157C24.0836 48.7157 23.9585 48.7157 23.8335 48.7157L18.2054 42.9518L23.9585 37.3132C24.2086 37.0626 24.2086 36.812 23.9585 36.5614L17.9553 30.6723C17.9553 30.547 17.9553 30.5469 17.9553 30.4216L23.8335 24.9084C23.8335 24.9084 23.9586 24.9084 24.0836 24.9084L29.5865 30.4216C29.9617 30.7975 30.5871 30.7975 30.9623 30.4216L36.7154 24.6578L42.5936 30.547L36.8404 36.3108C36.4652 36.6867 36.4652 37.3133 36.8404 37.6892L42.4684 43.3277C42.4684 43.453 42.4685 43.453 42.3434 43.5783Z" fill="#FBFDFF"/>
</svg>
