<svg width="43" height="43" viewBox="0 0 43 43" fill="none" xmlns="http://www.w3.org/2000/svg">
<path d="M21.4984 43.0001C9.50896 43.0001 0 33.3305 0 21.6032C0 9.67021 9.71567 0.206055 21.4984 0.206055C33.4879 0.206055 42.9968 9.87595 42.9968 21.6032C43.2035 33.5362 33.4879 43.0001 21.4984 43.0001ZM21.4984 1.23476C10.3358 1.23476 1.03358 10.2874 1.03358 21.6032C1.03358 32.7132 10.1291 41.9714 21.4984 41.9714C32.6611 41.9714 41.9632 32.919 41.9632 21.6032C41.9632 10.4932 32.8678 1.23476 21.4984 1.23476Z" fill="#FBFDFF"/>
<path d="M21.4981 42.7943C21.2913 42.7943 20.8779 42.5887 20.8779 42.3829C20.8779 41.9714 21.0845 41.7656 21.2913 41.7656C29.5599 40.3254 35.7613 31.6844 35.7613 21.6031C35.7613 11.7275 29.7666 3.29195 21.7047 1.64601C21.2913 1.64601 21.0845 1.23468 21.2913 1.02894C21.2913 0.617458 21.7048 0.411566 21.9115 0.617308C30.5935 2.46898 36.7949 11.316 36.7949 21.8088C37.2083 32.3016 30.3868 41.3541 21.4981 42.7943Z" fill="#FBFDFF"/>
<path d="M21.4978 42.7941C12.609 41.3539 5.99414 32.0956 5.99414 21.6028C5.99414 11.11 12.1956 2.26305 20.8777 0.411377C21.2911 0.411377 21.4978 0.617018 21.4978 0.822759C21.4978 1.23424 21.291 1.44008 21.0843 1.44008C13.0224 3.08601 7.02772 11.5213 7.02772 21.3969C7.02772 31.4782 13.2292 40.1195 21.4978 41.5597C21.9112 41.5597 22.118 41.9712 21.9112 42.177C22.118 42.5885 21.9112 42.7941 21.4978 42.7941Z" fill="#FBFDFF"/>
<path d="M21.4982 13.7848C15.7101 13.7848 10.3355 11.5217 6.20117 7.40688L7.02808 6.58387C10.9557 10.493 15.9168 12.5504 21.4982 12.5504C27.0795 12.5504 32.2474 10.2873 35.9682 6.37817L36.795 7.20119C32.8674 11.5218 27.4929 13.7848 21.4982 13.7848Z" fill="#FBFDFF"/>
<path d="M7.02808 36.6221L6.20117 35.7991C10.3355 31.6842 15.7101 29.4211 21.7048 29.4211C27.4928 29.4211 32.8675 31.6842 37.0018 35.7991L36.1749 36.6221C32.2473 32.713 27.2861 30.6555 21.7048 30.6555C16.1235 30.6555 10.9557 32.713 7.02808 36.6221Z" fill="#FBFDFF"/>
<path d="M42.5834 20.9856H0.620117V22.22H42.5834V20.9856Z" fill="#FBFDFF"/>
<path d="M21.4981 42.9997C21.0846 42.9997 20.8779 42.7942 20.8779 42.3827V0.617073C20.8779 0.205591 21.0846 0 21.4981 0C21.9115 0 22.1182 0.205591 22.1182 0.617073V42.3827C22.1182 42.7942 21.9115 42.9997 21.4981 42.9997Z" fill="#FBFDFF"/>
</svg>
