<svg width="101" height="101" viewBox="0 0 101 101" fill="none" xmlns="http://www.w3.org/2000/svg">
<circle cx="50.5" cy="50.5" r="50.5" fill="#9798C9"/>
<path d="M73.8466 32.6746C70.8408 29.9099 66.9432 28.4062 62.8253 28.4062C62.6618 28.4062 62.4984 28.4062 62.3278 28.4062C58.0359 28.5414 54.0459 30.2841 51.0898 33.3433L50.5 33.9531L49.9102 33.3433C46.9541 30.2875 42.9641 28.5414 38.6722 28.4062C38.5016 28.4062 38.3382 28.4062 38.1747 28.4062C34.0568 28.4062 30.1592 29.9099 27.1534 32.6746C24.0197 35.5468 22.229 39.4375 22.1011 43.6332C21.9732 47.8184 23.5223 51.8096 26.4854 54.8723L50.5 78.9062L74.5323 54.855C77.4777 51.8062 79.0268 47.8149 78.8989 43.6297C78.771 39.441 76.9839 35.5503 73.8466 32.6746ZM24.7303 43.7094C24.8333 40.2032 26.3398 36.9465 28.9512 34.549C31.4703 32.2346 34.7319 30.9735 38.1747 30.9735C38.3133 30.9735 38.4483 30.9735 38.5869 30.9804C42.1825 31.0809 45.5223 32.5499 47.9916 35.0964L62.0187 49.568C60.2529 50.6039 57.9506 50.403 56.3766 48.9652L49.061 42.2508C47.2703 44.0801 44.2503 44.2048 42.3637 42.476L37.0627 37.5978L35.2649 39.4687L40.5659 44.3469C41.9302 45.5976 43.6676 46.2074 45.4121 46.2524L33.6802 58.3958L28.3863 53.0985C25.9205 50.5485 24.6201 47.2086 24.7303 43.7094ZM49.2849 45.9856L51.875 48.3589L38.0042 62.7266L35.5171 60.239L49.2849 45.9856ZM53.7865 50.1154L54.5753 50.8395C55.1366 51.3592 55.801 51.7126 56.4761 52.0279L42.1398 66.8702L39.8375 64.5663L53.7865 50.1154ZM47.9952 72.7254L50.3117 70.3625L52.9373 72.7912L50.5 75.2303L47.9952 72.7254ZM60.928 64.8019L58.7678 66.9638L56.0817 64.4727L58.2171 62.29L60.928 64.8019ZM60.0362 60.433L62.1715 58.2538L64.9215 60.7968L62.7578 62.9622L60.0362 60.433ZM56.9273 68.8L54.7742 70.955L52.1308 68.5055L54.259 66.3298L56.9273 68.8ZM72.6315 53.0881L66.762 58.964L62.0898 54.6333L46.1618 70.8892L43.9838 68.7099L59.3931 52.7555C59.4677 52.7589 59.5317 52.7936 59.6063 52.7936C59.6738 52.7936 59.7342 52.7936 59.7946 52.7936C61.7487 52.7451 63.5643 51.9586 64.9073 50.5624L65.7565 49.6858L52.312 35.824L53.0155 35.0964C55.4813 32.5499 58.8211 31.0809 62.4202 30.9804C66.0585 30.7899 69.4338 32.1411 72.0559 34.5455C74.6673 36.943 76.1738 40.1997 76.2768 43.7059C76.3834 47.2086 75.0795 50.5485 72.6315 53.0881Z" fill="white"/>
</svg>
