<svg width="14" height="19" viewBox="0 0 14 19" fill="none" xmlns="http://www.w3.org/2000/svg">
<path d="M6.82258 19C6.71767 19 6.61277 18.9069 6.50786 18.8138L0.947633 8.19611C0.00345159 6.42651 0.213295 4.37747 1.36729 2.701C2.52129 1.02453 4.40968 0.0931371 6.50786 0C6.71768 0 7.03236 0 7.24218 0C9.34036 0.0931371 11.2287 1.11767 12.3827 2.701C13.5367 4.37747 13.6417 6.42651 12.8024 8.19611L7.24218 18.8138C7.13727 19 7.0324 19 6.82258 19ZM6.82258 0.465686C6.71767 0.465686 6.61277 0.465686 6.50786 0.465686C4.6195 0.558823 2.83602 1.49026 1.89184 2.98046C0.84275 4.47065 0.737853 6.42655 1.57713 8.00989L6.92746 18.1617L12.2779 8.00989C13.1171 6.42655 13.0122 4.47065 11.9631 2.98046C10.914 1.49026 9.23549 0.558823 7.34712 0.465686C7.0324 0.465686 6.92749 0.465686 6.82258 0.465686Z" fill="#2E3192"/>
<path d="M6.85284 8.86654C4.83487 8.86654 3.2417 7.46955 3.2417 5.69993C3.2417 3.9303 4.83487 2.5332 6.85284 2.5332C8.87082 2.5332 10.4639 3.9303 10.4639 5.69993C10.4639 7.46955 8.87082 8.86654 6.85284 8.86654ZM6.85284 3.09201C5.15349 3.09201 3.87899 4.30285 3.87899 5.69993C3.87899 7.19014 5.2597 8.30773 6.85284 8.30773C8.55219 8.30773 9.82669 7.097 9.82669 5.69993C9.9329 4.30285 8.55219 3.09201 6.85284 3.09201Z" fill="#2E3192"/>
</svg>
