<svg width="43" height="35" viewBox="0 0 43 35" fill="none" xmlns="http://www.w3.org/2000/svg">
<path fill-rule="evenodd" clip-rule="evenodd" d="M10.9837 35.0001H10.75C10.5163 35.0001 10.2826 34.8137 10.2826 34.4412V27.3629H0.701059C0.233667 27.3629 0 27.1765 0 26.804V1.2845C0 0.911951 0.233667 0.725586 0.701059 0.725586H42.2989C42.7663 0.725586 43 0.911951 43 1.2845V1.84319L41.3641 3.88352V1.84319H1.16848V26.2453H10.75C11.2174 26.2453 11.4511 26.4314 11.4511 26.804V33.3236L20.7989 26.4315C20.9158 26.4315 20.9742 26.385 21.0326 26.3384C21.091 26.2919 21.1495 26.2453 21.2663 26.2453H41.3641V19.2075V15.4674L43 13.481V17.1992V26.804C43 27.1765 42.7663 27.3629 42.2989 27.3629H21.7337L11.4511 34.8139C11.2174 34.8139 10.9837 35.0001 10.9837 35.0001Z" fill="#FBFDFF"/>
<path d="M43 3.88352L41.3641 5.92089V15.4674L43 13.481V3.88352Z" fill="#FBFDFF"/>
<path d="M43 1.84319L41.3641 3.88352V5.92089L43 3.88352V1.84319Z" fill="#FBFDFF"/>
</svg>
