<svg width="43" height="46" viewBox="0 0 43 46" fill="none" xmlns="http://www.w3.org/2000/svg">
<path fill-rule="evenodd" clip-rule="evenodd" d="M2.79344 46H42.4116C42.6077 46 42.8038 45.8011 42.9999 45.4031V5.59719C42.9999 5.19913 42.8038 5 42.4116 5H18.659V6.19413H41.8232V44.8059H3.18572V9.39286H2.20508V45.4031C2.20508 45.8011 2.40118 46 2.79344 46Z" fill="#FBFDFF"/>
<path d="M26.8594 25.7842H19.4197C19.1031 25.7842 18.9448 25.93 18.9448 26.2217V40.2234C18.9448 40.5151 19.1031 40.661 19.4197 40.661H26.8594C27.176 40.661 27.3343 40.5151 27.3343 40.2234V26.2217C27.3343 25.93 27.0177 25.7842 26.8594 25.7842ZM26.3845 39.7858H19.8945V26.5134H26.3845V39.7858Z" fill="#FBFDFF"/>
<path d="M39.0474 18.3447H31.6078C31.2912 18.3447 31.1328 18.4906 31.1328 18.7824V40.2224C31.1328 40.5141 31.2912 40.66 31.6078 40.66H39.0474C39.364 40.66 39.5224 40.5141 39.5224 40.2224V18.7824C39.5224 18.4906 39.2057 18.3447 39.0474 18.3447ZM38.5727 39.7848H32.0826V19.2199H38.5727V39.7848Z" fill="#FBFDFF"/>
<path d="M14.9879 18.3447H7.5481C7.23152 18.3447 7.07324 18.4906 7.07324 18.7824V40.2224C7.07324 40.5141 7.23152 40.66 7.5481 40.66H14.9879C15.3044 40.66 15.4627 40.5141 15.4627 40.2224V18.7824C15.4627 18.4906 15.3044 18.3447 14.9879 18.3447ZM14.6713 39.7848H8.18121V19.2199H14.6713V39.7848Z" fill="#FBFDFF"/>
<path d="M9.74265 11.4338C9.90095 11.5796 9.90096 11.5796 10.0593 11.5796C10.2176 11.5796 10.3759 11.4338 10.3759 11.4338L17.8156 1.51584L18.2905 4.14122C18.2905 4.28708 18.4487 4.43286 18.7653 4.43286C18.7653 4.43286 18.7653 4.43286 18.9236 4.43286C19.2402 4.43286 19.3985 4.14117 19.2402 3.99532L18.6071 0.349049C18.6071 0.0573469 18.2904 -0.0885218 18.1321 0.0573291L14.1748 0.640768C13.8582 0.640768 13.7 0.932452 13.8583 1.0783C13.8583 1.37 14.1749 1.51587 14.3332 1.37002L17.1824 0.932488L10.0593 10.4128L0.75185 2.77132C0.593553 2.62547 0.277036 2.62547 0.118739 2.77132C-0.0395587 2.91717 -0.0395587 3.2089 0.118739 3.35476L9.74265 11.4338Z" fill="#FBFDFF"/>
</svg>
