<svg width="20" height="21" viewBox="0 0 20 21" fill="none" xmlns="http://www.w3.org/2000/svg">
<path d="M15.3581 10.4518L19.7835 6.01808C20.0722 5.72892 20.0722 5.24696 19.7835 4.9578L15.5505 0.716868C15.2619 0.427711 14.7808 0.427711 14.4922 0.716868L10.0668 5.15058L5.73755 0.81323C5.44893 0.524073 4.96786 0.524073 4.67925 0.81323L0.253815 4.76507C-0.0348015 5.05423 -0.131007 5.6325 0.253815 5.92165L4.48688 10.3554C4.48688 10.3554 4.48688 10.4518 4.48688 10.5482L0.446238 14.5964C0.157621 14.8855 0.157621 15.3675 0.446238 15.6566L4.67925 19.8976C4.96786 20.1867 5.44893 20.1867 5.73755 19.8976L9.39335 16.2349C9.68196 15.9458 10.163 15.9458 10.4516 16.2349L14.4922 20.2831C14.7808 20.5723 15.2619 20.5723 15.5505 20.2831L19.6874 16.1386C19.976 15.8494 19.976 15.3674 19.6874 15.0783L15.3581 10.4518ZM19.4949 15.5602L15.2619 19.8012C15.2619 19.8012 15.1657 19.8012 15.0695 19.8012L10.644 15.3675C10.3554 15.0783 9.87439 15.0783 9.58577 15.3675L5.44894 19.5121C5.44894 19.5121 5.35272 19.5121 5.25652 19.5121L0.927266 15.0783L5.3527 10.7409C5.54511 10.5482 5.54511 10.3554 5.3527 10.1626L0.734843 5.63251C0.734843 5.53612 0.734843 5.53611 0.734843 5.43973L5.25652 1.1988C5.25652 1.1988 5.35273 1.1988 5.44894 1.1988L9.68195 5.43973C9.97057 5.72888 10.4516 5.72888 10.7402 5.43973L15.1657 1.00601L19.6874 5.53615L15.2619 9.96986C14.9732 10.259 14.9732 10.741 15.2619 11.0301L19.5911 15.3675C19.5911 15.4639 19.5911 15.4638 19.4949 15.5602Z" fill="#FBFDFF"/>
</svg>
