<svg width="35" height="35" viewBox="0 0 35 35" fill="none" xmlns="http://www.w3.org/2000/svg">
<path d="M23.3581 17.4518L27.7835 13.0181C28.0722 12.7289 28.0722 12.247 27.7835 11.9578L23.5505 7.71687C23.2619 7.42771 22.7808 7.42771 22.4922 7.71687L18.0668 12.1506L13.7375 7.81323C13.4489 7.52407 12.9679 7.52407 12.6792 7.81323L8.25382 11.7651C7.9652 12.0542 7.86899 12.6325 8.25382 12.9217L12.4869 17.3554C12.4869 17.3554 12.4869 17.4518 12.4869 17.5482L8.44624 21.5964C8.15762 21.8855 8.15762 22.3675 8.44624 22.6566L12.6792 26.8976C12.9679 27.1867 13.4489 27.1867 13.7375 26.8976L17.3933 23.2349C17.682 22.9458 18.163 22.9458 18.4516 23.2349L22.4922 27.2831C22.7808 27.5723 23.2619 27.5723 23.5505 27.2831L27.6874 23.1386C27.976 22.8494 27.976 22.3674 27.6874 22.0783L23.3581 17.4518ZM27.4949 22.5602L23.2619 26.8012C23.2619 26.8012 23.1657 26.8012 23.0695 26.8012L18.644 22.3675C18.3554 22.0783 17.8744 22.0783 17.5858 22.3675L13.4489 26.5121C13.4489 26.5121 13.3527 26.5121 13.2565 26.5121L8.92727 22.0783L13.3527 17.7409C13.5451 17.5482 13.5451 17.3554 13.3527 17.1626L8.73484 12.6325C8.73484 12.5361 8.73484 12.5361 8.73484 12.4397L13.2565 8.1988C13.2565 8.1988 13.3527 8.1988 13.4489 8.1988L17.682 12.4397C17.9706 12.7289 18.4516 12.7289 18.7402 12.4397L23.1657 8.00601L27.6874 12.5361L23.2619 16.9699C22.9732 17.259 22.9732 17.741 23.2619 18.0301L27.5911 22.3675C27.5911 22.4639 27.5911 22.4638 27.4949 22.5602Z" fill="#FBFDFF"/>
</svg>
