<svg width="36" height="36" viewBox="0 0 36 36" fill="none" xmlns="http://www.w3.org/2000/svg">
<path d="M0 7.875L30.5 3L32 35.5H0V7.875Z" fill="#FBFDFF"/>
<path fill-rule="evenodd" clip-rule="evenodd" d="M10.5146 5.64705L10 5.1274V6.91162C10.7803 7.40278 11.7232 7.43876 12.5535 7.01958C13.0632 6.67644 13.5728 6.50483 14.0825 6.33326C15.2718 5.99013 15.9515 4.96072 15.9515 3.75974V2.04405C15.9515 1.87248 16.1213 1.7009 16.2912 1.7009H20.0291C20.199 1.7009 20.3689 1.87248 20.3689 2.04405V3.75974C20.3689 4.96072 21.2184 5.99013 22.2378 6.33326C22.4927 6.41905 22.7475 6.54773 23.0024 6.67642C23.2573 6.80511 23.5121 6.93379 23.767 7.01958C24.7864 7.53428 25.9757 7.36274 26.8252 6.50489L28.0146 5.30389C28.1845 5.13233 28.3543 5.13233 28.5242 5.30389L31.0728 7.87742C31.2427 7.87742 31.2427 7.87738 31.2427 8.04895L31.0728 8.22058L29.8834 9.42147C29.0339 10.2793 28.864 11.4804 29.3738 12.5098C29.7136 13.0245 29.8835 13.5392 30.0534 14.0539C30.3932 15.2549 31.4126 15.9412 32.6019 15.9412H34.301C34.4709 15.9412 34.6408 16.1126 34.6408 16.2842V20.0588C34.6408 20.2304 34.4709 20.4019 34.301 20.4019H32.7718C31.5825 20.4019 30.5631 21.2597 30.2233 22.2891C30.1383 22.5465 30.0109 22.8038 29.8835 23.0612C29.7561 23.3185 29.6287 23.5759 29.5437 23.8333C29.2796 24.3666 29.198 24.9461 29.2988 25.5H30.6834C30.5064 25.0928 30.5061 24.6345 30.733 24.1763C31.0074 23.7607 31.171 23.2332 31.3133 22.7745C31.3472 22.6651 31.3799 22.5597 31.4126 22.4606C31.7524 21.7744 32.432 21.2597 33.1116 21.2597H34.6408C35.4903 21.2597 36 20.5734 36 19.8871V16.1127C36 15.2548 35.3204 14.7401 34.6408 14.7401H32.9418C32.0923 14.7401 31.4127 14.2254 31.2427 13.5392C31.0728 12.8529 30.9029 12.3382 30.5631 11.8235C30.2233 11.3088 30.3932 10.451 30.9029 9.93626L32.0923 8.73526C32.2622 8.56369 32.432 8.22056 32.432 7.87742C32.432 7.53428 32.2622 7.19115 32.0923 7.01958L29.5437 4.44605C29.034 3.93135 28.1844 3.93135 27.6747 4.44605L26.4854 5.64705C25.9757 6.16176 25.2961 6.33324 24.6165 5.99011C23.9369 5.64697 23.4272 5.47546 22.9175 5.30389C22.2379 4.96076 21.7281 4.27448 21.7281 3.58821V1.87253C21.7281 1.01468 21.0485 0.5 20.3689 0.5H16.6311C15.7815 0.5 15.2719 1.18625 15.2719 1.87253V3.58821C15.2719 4.44605 14.7621 5.13233 14.0825 5.30389C13.4029 5.47546 12.8932 5.64697 12.3835 5.99011C11.8738 6.33324 11.0243 6.16176 10.5146 5.64705Z" fill="#2E3192"/>
<path d="M16.4612 35.5H20.1991C20.8787 35.5 21.3884 34.8136 21.8981 34.1274V32.5832C21.8981 31.7254 22.4077 31.0391 23.0873 30.8675C23.7669 30.696 24.2767 30.5243 24.7864 30.1812C25.2961 29.8381 26.1456 30.0098 26.6554 30.5245L27.8447 31.7254C28.3544 32.2401 29.2039 32.2401 29.7136 31.7254L32.2621 29.1518C32.7718 28.6371 32.7718 27.7793 32.2621 27.2646L31.0728 26.0637C30.9034 25.8927 30.7715 25.7027 30.6834 25.5H29.2988C29.3925 26.0151 29.6441 26.5082 30.0534 26.9216L31.2427 28.1225C31.4127 28.1225 31.4126 28.294 31.4126 28.294L31.2427 28.4655L28.6942 31.0391C28.5243 31.2106 28.3543 31.2106 28.1844 31.0391L26.9952 29.8382C26.1457 28.9803 24.9563 28.8087 23.9369 29.3234C23.4271 29.6665 22.9175 29.8381 22.4078 30.0097C21.2185 30.3528 20.5388 31.3822 20.5388 32.5832V34.1274C20.5388 34.2989 20.369 34.4704 20.1991 34.4704H16.4612C16.2913 34.4704 16.1214 34.2989 16.1214 34.1274V32.5832C16.1214 31.3822 15.2719 30.3528 14.2525 30.0097C13.7428 29.8381 13.233 29.4949 12.7233 29.3234C12.3835 29.1518 11.8738 28.9803 11.534 28.9803C10.8544 28.9803 10.1748 29.3235 9.32527 29.8382L8.13593 31.0391C7.96603 31.2106 7.79615 31.2106 7.62624 31.0391L5.0777 28.4655C4.9078 28.4655 4.90784 28.294 4.90784 28.294L5.0777 28.1225L6.26704 26.9216C7.11656 26.0637 7.28644 24.8627 6.77673 23.8333C6.43692 23.3186 6.26698 22.8038 6.09708 22.2891C5.75727 21.0881 4.73786 20.4019 3.54854 20.4019H2.01948C1.84958 20.4019 1.67965 20.2304 1.67965 20.0588V16.2842C1.67965 16.1126 1.84958 15.9412 2.01948 15.9412H3.7185C4.90782 15.9412 5.92724 15.0834 6.26704 14.0539C6.43695 13.5392 6.77669 13.0245 6.94659 12.5098C7.4563 11.4804 7.28642 10.2793 6.4369 9.42147L5.24757 8.22058C5.07766 8.22058 5.0777 8.22052 5.0777 8.04895L5.24757 7.87742L7.7961 5.30389C7.96601 5.13233 8.13599 5.13233 8.3059 5.30389L9.49513 6.50489C9.6528 6.66411 9.82218 6.79968 10 6.91162V5.1274L9.32527 4.44605C8.81556 3.93135 7.96609 3.93135 7.45638 4.44605L4.90784 7.01958C4.73794 7.19115 4.56802 7.53428 4.56802 7.87742C4.56802 8.22056 4.73794 8.56369 4.90784 8.73526L6.09708 9.93626C6.60679 10.451 6.77671 11.1372 6.4369 11.8235C6.0971 12.5097 5.92726 13.0245 5.75736 13.5392C5.41755 14.2254 4.73794 14.7401 4.05833 14.7401H2.3593C1.50979 14.7401 1 15.4264 1 16.1127V19.8871C1 20.7449 1.67969 21.2597 2.3593 21.2597H3.88837C4.73788 21.2597 5.41749 21.7744 5.58739 22.4606C5.75729 23.1469 5.92724 23.6616 6.26704 24.1763C6.60685 24.691 6.43692 25.549 5.92722 26.0637L4.73788 27.2646C4.22817 27.7793 4.22817 28.6371 4.73788 29.1518L7.28642 31.7254C7.79613 32.2401 8.6457 32.2401 9.15541 31.7254L10.3446 30.5245C10.8544 30.0098 11.534 29.8381 12.2136 30.1812C12.7233 30.5243 13.403 30.696 13.9127 30.8675C14.5923 31.2107 15.102 31.8969 15.102 32.5832V34.1274C15.102 34.9852 15.7816 35.5 16.4612 35.5Z" fill="#2E3192"/>
<path fill-rule="evenodd" clip-rule="evenodd" d="M22.7719 25.5H24.4795C26.6267 23.6923 28.0144 20.9808 28.0144 17.9998C28.0144 12.5096 23.597 8.22046 18.33 8.22046C14.7428 8.22046 11.6733 10.1623 10 13.0111V15.5996C11.0425 11.9487 14.3957 9.24983 18.33 9.24983C23.0873 9.24983 26.9951 13.1959 26.9951 17.9998C26.9951 21.1686 25.2948 23.9641 22.7719 25.5Z" fill="#2E3192"/>
<path d="M10 20.5V22.9993C10.562 23.9515 11.2791 24.7959 12.1138 25.5H13.8881C12.0269 24.3669 10.6134 22.5483 10 20.3999V20.5Z" fill="#2E3192"/>
<path d="M10 13.0111C9.13715 14.4801 8.64551 16.1903 8.64551 17.9998C8.64551 19.84 9.14179 21.5453 10 22.9993V20.5V20.3999C9.78193 19.6362 9.66499 18.8308 9.66499 17.9998C9.66499 17.1687 9.78193 16.3633 10 15.5996V13.0111Z" fill="#2E3192"/>
<path d="M22.7719 25.5C21.4701 26.2926 19.9492 26.7497 18.33 26.7497C16.7107 26.7497 15.1899 26.2926 13.8881 25.5H12.1138C13.8073 26.9286 15.9844 27.7793 18.33 27.7793C20.6449 27.7793 22.7958 26.9176 24.4795 25.5H22.7719Z" fill="#2E3192"/>
</svg>
